<svg xmlns="http://www.w3.org/2000/svg" xmlns:xlink="http://www.w3.org/1999/xlink" width="58" height="30" viewBox="0 0 58 30">
    <defs>
        <path id="a" d="M25.479 0H0v8.512h25.479V0z"/>
        <path id="c" d="M0 29.793h29.755V0H0z"/>
    </defs>
    <g fill="none" fill-rule="evenodd">
        <g>
            <mask id="b" fill="#fff">
                <use xlink:href="#a"/>
            </mask>
            <path fill="#7575C4" d="M18.047 8.512c4.105 0 7.432-3.334 7.432-7.448V0H7.43C3.327 0 0 3.335 0 7.448v1.064H18.048z" mask="url(#b)"/>
            <path fill="#02D099" d="M27.867 0v1.064c0 4.114-3.327 7.448-7.431 7.448h1.858c4.104 0 7.431-3.334 7.431-7.448V0h-1.858zM19.404 11.72c0 4.113-3.327 7.448-7.431 7.448h1.857c4.105 0 7.432-3.335 7.432-7.449v-1.064h-1.858v1.064z"/>
            <path fill="#7575C4" d="M16.986 11.72v-1.065H0v8.513h9.554c4.105 0 7.432-3.335 7.432-7.449"/>
            <mask id="d" fill="#fff">
                <use xlink:href="#c"/>
            </mask>
            <path fill="#7575C4" d="M0 29.823h1.062c4.104 0 7.43-3.335 7.43-7.449V21.31H0v8.513z" mask="url(#d)"/>
        </g>
        <path fill="#02D099" d="M23 11h8v19h-8zM31 23h8v7h-8zM40 16h8v6a8 8 0 0 1-8 8V16z"/>
        <g fill="#02D099">
            <path d="M52.383 2l5.607 5.643L43.971 21.75l-5.607-5.643z"/>
            <path d="M30 7.643L35.608 2l14.019 14.107-5.608 5.643z"/>
        </g>
    </g>
</svg>
